<?xml version="1.0" encoding="utf-8"?>
<!-- Generator: Adobe Illustrator 16.0.0, SVG Export Plug-In . SVG Version: 6.00 Build 0)  -->
<!DOCTYPE svg PUBLIC "-//W3C//DTD SVG 1.1//EN" "http://www.w3.org/Graphics/SVG/1.1/DTD/svg11.dtd">
<svg version="1.1" id="Layer_1" xmlns="http://www.w3.org/2000/svg" xmlns:xlink="http://www.w3.org/1999/xlink" x="0px" y="0px"
	 width="496.035px" height="464.73px" viewBox="0 0 496.035 464.73" enable-background="new 0 0 496.035 464.73"
	 xml:space="preserve">
<g>
	<path fill="#EEEEEE" d="M51.797,323.54c6.454-8.065,14.524-14.233,24.207-18.501c9.683-4.262,20.633-6.396,32.852-6.396
		c23.17,0,42.476,7.812,57.924,23.432c15.445,15.617,23.169,34.955,23.169,58.009c0,22.712-7.927,41.96-23.775,57.751
		c-15.851,15.795-35.187,23.688-58.01,23.688c-12.104,0-22.651-2.135-31.642-6.397c-8.991-4.262-16.369-10.721-22.132-19.366v13.833
		c0,3.112-0.549,5.359-1.643,6.743c-1.097,1.383-2.912,2.075-5.446,2.075H15.66c-4.496,0-7.84-1.038-10.029-3.112
		c-2.191-2.075-3.285-5.188-3.285-9.337c0-4.605,1.324-7.751,3.977-9.422c2.65-1.672,7.895-2.509,15.734-2.509h3.631v-177.06h-3.286
		c-7.84,0-13.2-0.92-16.08-2.767C3.44,252.363,2,249.134,2,244.521c0-4.149,1.151-7.264,3.458-9.338
		c2.305-2.074,5.706-3.112,10.202-3.112h26.282c3.458,0,5.965,0.58,7.521,1.729c1.556,1.154,2.334,2.939,2.334,5.359V323.54z
		 M105.744,434.374c16.253,0,29.451-5.126,39.596-15.389c10.143-10.26,15.216-23.571,15.216-39.942
		c0-16.02-5.16-29.221-15.475-39.596c-10.317-10.375-23.429-15.562-39.336-15.562c-16.023,0-29.135,5.16-39.336,15.479
		c-10.201,10.315-15.302,23.543-15.302,39.681c0,16.142,5.101,29.395,15.302,39.77C76.609,429.188,89.721,434.374,105.744,434.374z"
		/>
	<path fill="#EEEEEE" d="M343.597,309.016v-0.689c0-3.805,1.095-6.6,3.285-8.385c2.188-1.787,5.589-2.684,10.199-2.684
		c4.727,0,7.979,1.385,9.771,4.15c1.783,2.767,2.68,8.473,2.68,17.117v32.16c0,4.268-1.097,7.467-3.285,9.6
		c-2.189,2.132-5.477,3.195-9.855,3.195c-3.108,0-5.791-0.893-8.038-2.679s-4.985-5.505-8.213-11.153
		c-5.531-9.336-12.25-16.396-20.145-21.181c-7.896-4.782-16.976-7.177-27.231-7.177c-17.982,0-32.594,5.305-43.832,15.907
		c-11.24,10.606-16.859,24.321-16.859,41.149c0,17.18,5.387,31.213,16.167,42.104c10.778,10.894,24.639,16.339,41.584,16.339
		c7.722,0,15.068-1.065,22.046-3.197c6.973-2.133,13.573-5.33,19.798-9.599c2.188-1.383,5.128-3.514,8.818-6.397
		c7.488-6.105,13.367-9.164,17.635-9.164c3.573,0,6.484,1.127,8.731,3.373c2.247,2.248,3.37,5.16,3.37,8.73
		c0,9.11-8.617,18.416-25.849,27.927c-17.232,9.51-35.532,14.263-54.897,14.263c-25.015,0-45.851-8.008-62.504-24.032
		c-16.659-16.021-24.985-36.021-24.985-60.001c0-23.973,8.299-44.002,24.898-60.082c16.6-16.08,37.35-24.121,62.247-24.121
		c8.761,0,17.551,1.183,26.368,3.546C324.317,300.4,333.682,304.062,343.597,309.016z"/>
</g>
<rect x="228.518" y="1" fill="#EEEEEE" width="265.518" height="200.865"/>
</svg>
